stateDiagram-v2

    [*] --> EmPreenchimento : iniciar novo treino

    EmPreenchimento --> EmPreenchimento : adicionar exercício
    EmPreenchimento --> EmPreenchimento : informar séries, repetições e cargas

    EmPreenchimento --> Finalizado : salvar com dados válidos
    EmPreenchimento --> Cancelado : cancelar treino

    Finalizado --> [*]
    Cancelado --> [*]
